<?xml version="1.0" encoding="UTF-8" standalone="no"?>
<!-- Generator: Adobe Illustrator 19.0.0, SVG Export Plug-In . SVG Version: 6.00 Build 0)  -->

<svg
   version="1.1"
   id="Capa_1"
   x="0px"
   y="0px"
   viewBox="0 0 51.976 51.976"
   style="enable-background:new 0 0 51.976 51.976;"
   xml:space="preserve"
   sodipodi:docname="error-svgrepo-com.svg"
   inkscape:version="1.2.1 (9c6d41e, 2022-07-14)"
   xmlns:inkscape="http://www.inkscape.org/namespaces/inkscape"
   xmlns:sodipodi="http://sodipodi.sourceforge.net/DTD/sodipodi-0.dtd"
   xmlns="http://www.w3.org/2000/svg"
   xmlns:svg="http://www.w3.org/2000/svg"><defs
   id="defs1735" /><sodipodi:namedview
   id="namedview1733"
   pagecolor="#ffffff"
   bordercolor="#000000"
   borderopacity="0.25"
   inkscape:showpageshadow="2"
   inkscape:pageopacity="0.0"
   inkscape:pagecheckerboard="0"
   inkscape:deskcolor="#d1d1d1"
   showgrid="false"
   inkscape:zoom="16.353701"
   inkscape:cx="26.018575"
   inkscape:cy="26.018575"
   inkscape:window-width="1920"
   inkscape:window-height="1016"
   inkscape:window-x="0"
   inkscape:window-y="27"
   inkscape:window-maximized="1"
   inkscape:current-layer="Capa_1" />
<g
   id="g1700"
   style="fill:#782121;fill-opacity:1">
	<path
   d="M44.373,7.603c-10.137-10.137-26.632-10.138-36.77,0c-10.138,10.138-10.137,26.632,0,36.77s26.632,10.138,36.77,0   C54.51,34.235,54.51,17.74,44.373,7.603z M36.241,36.241c-0.781,0.781-2.047,0.781-2.828,0l-7.425-7.425l-7.778,7.778   c-0.781,0.781-2.047,0.781-2.828,0c-0.781-0.781-0.781-2.047,0-2.828l7.778-7.778l-7.425-7.425c-0.781-0.781-0.781-2.048,0-2.828   c0.781-0.781,2.047-0.781,2.828,0l7.425,7.425l7.071-7.071c0.781-0.781,2.047-0.781,2.828,0c0.781,0.781,0.781,2.047,0,2.828   l-7.071,7.071l7.425,7.425C37.022,34.194,37.022,35.46,36.241,36.241z"
   id="path1698"
   style="fill:#782121;fill-opacity:1" />
</g>
<g
   id="g1702">
</g>
<g
   id="g1704">
</g>
<g
   id="g1706">
</g>
<g
   id="g1708">
</g>
<g
   id="g1710">
</g>
<g
   id="g1712">
</g>
<g
   id="g1714">
</g>
<g
   id="g1716">
</g>
<g
   id="g1718">
</g>
<g
   id="g1720">
</g>
<g
   id="g1722">
</g>
<g
   id="g1724">
</g>
<g
   id="g1726">
</g>
<g
   id="g1728">
</g>
<g
   id="g1730">
</g>
</svg>
