<?xml version="1.0" encoding="UTF-8" standalone="no"?>
<svg
   x="0px"
   y="0px"
   width="52px"
   height="52px"
   viewBox="0 0 52 52"
   enable-background="new 0 0 52 52"
   xml:space="preserve"
   version="1.1"
   id="svg728"
   sodipodi:docname="success-svgrepo-com.svg"
   inkscape:version="1.2.1 (9c6d41e, 2022-07-14)"
   xmlns:inkscape="http://www.inkscape.org/namespaces/inkscape"
   xmlns:sodipodi="http://sodipodi.sourceforge.net/DTD/sodipodi-0.dtd"
   xmlns="http://www.w3.org/2000/svg"
   xmlns:svg="http://www.w3.org/2000/svg"><defs
   id="defs732" /><sodipodi:namedview
   id="namedview730"
   pagecolor="#ffffff"
   bordercolor="#000000"
   borderopacity="0.25"
   inkscape:showpageshadow="2"
   inkscape:pageopacity="0.0"
   inkscape:pagecheckerboard="0"
   inkscape:deskcolor="#d1d1d1"
   showgrid="false"
   inkscape:zoom="15.634615"
   inkscape:cx="26"
   inkscape:cy="26"
   inkscape:window-width="1920"
   inkscape:window-height="1016"
   inkscape:window-x="0"
   inkscape:window-y="27"
   inkscape:window-maximized="1"
   inkscape:current-layer="svg728" />
<path
   d="M26,2C12.7,2,2,12.7,2,26s10.7,24,24,24s24-10.7,24-24S39.3,2,26,2z M39.4,20L24.1,35.5  c-0.6,0.6-1.6,0.6-2.2,0L13.5,27c-0.6-0.6-0.6-1.6,0-2.2l2.2-2.2c0.6-0.6,1.6-0.6,2.2,0l4.4,4.5c0.4,0.4,1.1,0.4,1.5,0L35,15.5  c0.6-0.6,1.6-0.6,2.2,0l2.2,2.2C40.1,18.3,40.1,19.3,39.4,20z"
   id="path726"
   style="fill:#03d3d8;fill-opacity:1" />
</svg>
